<svg height="1000pt" preserveAspectRatio="xMidYMid meet" viewBox="0 0 1000 1000" width="1000pt" xmlns="http://www.w3.org/2000/svg">
  <!-- Stylized P for Perhaps - Safari Pinned Tab -->
  <g transform="matrix(.1 0 0 -.1 0 1000)">
    <!-- Vertical stem of P (4 bars stacked vertically) -->
    <path d="m1000 9000c-165-43-310-178-356-330-23-76-23-194 0-270 46-151 189-285 351-329 54-15 155-17 955-17 894 0 896 0 969 22 186 55 320 200 361 391 21 99 1 227-52 322-75 134-199 218-361 243-45 7-371 11-927 11-723 0-872-3-940-23z"/>
    <path d="m1000 7000c-165-43-310-178-356-330-23-76-23-194 0-270 46-151 189-285 351-329 54-15 155-17 955-17 894 0 896 0 969 22 186 55 320 200 361 391 21 99 1 227-52 322-75 134-199 218-361 243-45 7-371 11-927 11-723 0-872-3-940-23z"/>
    <path d="m1000 5000c-165-43-310-178-356-330-23-76-23-194 0-270 46-151 189-285 351-329 54-15 155-17 955-17 894 0 896 0 969 22 186 55 320 200 361 391 21 99 1 227-52 322-75 134-199 218-361 243-45 7-371 11-927 11-723 0-872-3-940-23z"/>
    <path d="m1000 3000c-165-43-310-178-356-330-23-76-23-194 0-270 46-151 189-285 351-329 54-15 155-17 955-17 894 0 896 0 969 22 186 55 320 200 361 391 21 99 1 227-52 322-75 134-199 218-361 243-45 7-371 11-927 11-723 0-872-3-940-23z"/>

    <!-- Bowl of P - Top horizontal bar -->
    <path d="m3500 9000c-165-43-310-178-356-330-23-76-23-194 0-270 46-151 189-285 351-329 70-19 117-20 2280-20 2163 0 2210 1 2280 20 162 44 305 178 351 329 23 76 23 194 0 270-46 152-189 286-351 330-70 19-117 20-2280 20-2163 0-2210-1-2280-20z"/>

    <!-- Bowl of P - Right vertical bar -->
    <path d="m7800 7000c-165-43-310-178-356-330-23-76-23-194 0-270 46-151 189-285 351-329 54-15 155-17 455-17 400 0 402 0 475 22 186 55 320 200 361 391 21 99 1 227-52 322-75 134-199 218-361 243-45 7-171 11-427 11-323 0-373-3-446-23z"/>

    <!-- Bowl of P - Bottom horizontal bar (shorter) -->
    <path d="m3500 5000c-165-43-310-178-356-330-23-76-23-194 0-270 46-151 189-285 351-329 70-19 117-20 1780-20 1663 0 1710 1 1780 20 162 44 305 178 351 329 23 76 23 194 0 270-46 152-189 286-351 330-70 19-117 20-1780 20-1663 0-1710-1-1780-20z"/>
  </g>
</svg>
