<svg width="70" height="70" viewBox="0 0 70 70" fill="none" xmlns="http://www.w3.org/2000/svg">
<g filter="url(#filter0_iii_4725_68011)">
<path d="M1.66199 28.3573C3.33915 4.37286 8.83917 -0.408237 32.8236 1.26892L41.868 1.90136C65.8524 3.57851 70.6335 9.07854 68.9563 33.063L68.3239 42.1073C66.6467 66.0917 61.1467 70.8728 37.1623 69.1957L28.1179 68.5632C4.13349 66.8861 -0.647606 61.3861 1.02955 37.4016L1.66199 28.3573Z" fill="url(#paint0_linear_4725_68011)"/>
<path d="M1.66199 28.3573C3.33915 4.37286 8.83917 -0.408237 32.8236 1.26892L41.868 1.90136C65.8524 3.57851 70.6335 9.07854 68.9563 33.063L68.3239 42.1073C66.6467 66.0917 61.1467 70.8728 37.1623 69.1957L28.1179 68.5632C4.13349 66.8861 -0.647606 61.3861 1.02955 37.4016L1.66199 28.3573Z" fill="black" fill-opacity="0.7"/>
</g>
<path d="M2.82179 28.4384C3.23922 22.4687 3.89051 17.7733 4.98031 14.1012C6.06625 10.4421 7.56711 7.86966 9.64032 6.06745C11.7135 4.26524 14.4698 3.13701 18.2445 2.57088C22.0324 2.00274 26.7729 2.01127 32.7425 2.42871L41.7868 3.06115C47.7565 3.47859 52.452 4.12988 56.124 5.21968C59.7831 6.30562 62.3556 7.80648 64.1578 9.87969C65.96 11.9529 67.0882 14.7092 67.6544 18.4838C68.2225 22.2718 68.214 27.0122 67.7965 32.9819L67.1641 42.0262C66.7466 47.9959 66.0953 52.6913 65.0056 56.3634C63.9196 60.0225 62.4188 62.5949 60.3455 64.3971C58.2723 66.1994 55.516 67.3276 51.7414 67.8937C47.9534 68.4619 43.213 68.4533 37.2434 68.0359L28.199 67.4034C22.2294 66.986 17.5339 66.3347 13.8619 65.2449C10.2028 64.159 7.6303 62.6581 5.82808 60.5849C4.02587 58.5117 2.89764 55.7554 2.33151 51.9808C1.76337 48.1928 1.77191 43.4524 2.18934 37.4827L2.82179 28.4384Z" stroke="white" stroke-width="2.32525"/>
<path d="M2.82179 28.4384C3.23922 22.4687 3.89051 17.7733 4.98031 14.1012C6.06625 10.4421 7.56711 7.86966 9.64032 6.06745C11.7135 4.26524 14.4698 3.13701 18.2445 2.57088C22.0324 2.00274 26.7729 2.01127 32.7425 2.42871L41.7868 3.06115C47.7565 3.47859 52.452 4.12988 56.124 5.21968C59.7831 6.30562 62.3556 7.80648 64.1578 9.87969C65.96 11.9529 67.0882 14.7092 67.6544 18.4838C68.2225 22.2718 68.214 27.0122 67.7965 32.9819L67.1641 42.0262C66.7466 47.9959 66.0953 52.6913 65.0056 56.3634C63.9196 60.0225 62.4188 62.5949 60.3455 64.3971C58.2723 66.1994 55.516 67.3276 51.7414 67.8937C47.9534 68.4619 43.213 68.4533 37.2434 68.0359L28.199 67.4034C22.2294 66.986 17.5339 66.3347 13.8619 65.2449C10.2028 64.159 7.6303 62.6581 5.82808 60.5849C4.02587 58.5117 2.89764 55.7554 2.33151 51.9808C1.76337 48.1928 1.77191 43.4524 2.18934 37.4827L2.82179 28.4384Z" stroke="url(#paint1_linear_4725_68011)" stroke-width="2.32525"/>
<path fill-rule="evenodd" clip-rule="evenodd" d="M6.20106 14.4635C5.15118 18.0011 4.50747 22.5866 4.09206 28.5272L3.45962 37.5716C3.04421 43.5122 3.04348 48.1426 3.59081 51.7919C4.13394 55.4131 5.1946 57.9152 6.78912 59.7495C8.38363 61.5838 10.7138 62.9824 14.2242 64.0242C17.7617 65.0741 22.3472 65.7178 28.2878 66.1332L37.3322 66.7656C43.2728 67.181 47.9033 67.1818 51.5525 66.6344C55.1738 66.0913 57.6759 65.0306 59.5101 63.4361C61.3444 61.8416 62.743 59.5115 63.7848 56.0011C64.8347 52.4635 65.4784 47.878 65.8938 41.9374L66.5262 32.893C66.9417 26.9524 66.9424 22.322 66.3951 18.6727C65.8519 15.0515 64.7913 12.5494 63.1968 10.7151C61.6022 8.88082 59.2721 7.48225 55.7617 6.44043C52.2241 5.39055 47.6387 4.74684 41.698 4.33143L32.6537 3.69899C26.713 3.28358 22.0826 3.28284 18.4333 3.83018C14.8121 4.3733 12.31 5.43397 10.4757 7.02849C8.64145 8.623 7.24288 10.9531 6.20106 14.4635ZM32.8236 1.26892C8.83917 -0.408237 3.33915 4.37286 1.66199 28.3573L1.02955 37.4016C-0.647606 61.3861 4.13349 66.8861 28.1179 68.5632L37.1623 69.1957C61.1467 70.8728 66.6467 66.0917 68.3239 42.1073L68.9563 33.063C70.6335 9.07854 65.8524 3.57851 41.868 1.90136L32.8236 1.26892Z" fill="url(#paint3_linear_4725_68011)"/>

<!-- Stylized P logomark inside the squircle -->
<g filter="url(#filter1_ddii_4725_68011)">
  <!-- Vertical stem of P (4 bars) -->
  <rect x="18" y="18" width="8" height="5" rx="2.5" fill="#14B8A6"/>
  <rect x="18" y="26" width="8" height="5" rx="2.5" fill="#3B82F6"/>
  <rect x="18" y="34" width="8" height="5" rx="2.5" fill="#6366F1"/>
  <rect x="18" y="42" width="8" height="5" rx="2.5" fill="#8B5CF6"/>

  <!-- Top horizontal bar of P (bowl top) -->
  <rect x="26" y="18" width="16" height="5" rx="2.5" fill="#14B8A6"/>

  <!-- Right curve of P (bowl side) -->
  <rect x="42" y="26" width="8" height="5" rx="2.5" fill="#3B82F6"/>

  <!-- Bottom horizontal bar of P (bowl bottom) -->
  <rect x="26" y="34" width="12" height="5" rx="2.5" fill="#6366F1"/>
</g>

<g opacity="0.23" filter="url(#filter2_f_4725_68011)">
<path d="M2.69258 40.4874L12.7122 44.9449L39.098 57.1213L66.9412 61.8859L45.5294 72.5984L-0.202764 68.4613L2.69258 40.4874Z" fill="#14B8A6"/>
</g>
<g opacity="0.23" filter="url(#filter3_f_4725_68011)">
<path d="M2.56821 1.97031L52.6272 -2.04293L69.5358 11.3492L56.9932 16.1074L23.2807 14.6892L2.56821 1.97031Z" fill="#8B5CF6"/>
</g>
<defs>
<filter id="filter0_iii_4725_68011" x="0.72644" y="-2.61149" width="68.533" height="75.6876" filterUnits="userSpaceOnUse" color-interpolation-filters="sRGB">
<feFlood flood-opacity="0" result="BackgroundImageFix"/>
<feBlend mode="normal" in="SourceGraphic" in2="BackgroundImageFix" result="shape"/>
<feColorMatrix in="SourceAlpha" type="matrix" values="0 0 0 0 0 0 0 0 0 0 0 0 0 0 0 0 0 0 127 0" result="hardAlpha"/>
<feOffset dy="1.27762"/>
<feGaussianBlur stdDeviation="1.59703"/>
<feComposite in2="hardAlpha" operator="arithmetic" k2="-1" k3="1"/>
<feColorMatrix type="matrix" values="0 0 0 0 0.196078 0 0 0 0 0.188235 0 0 0 0 0.219608 0 0 0 1 0"/>
<feBlend mode="normal" in2="shape" result="effect1_innerShadow_4725_68011"/>
<feColorMatrix in="SourceAlpha" type="matrix" values="0 0 0 0 0 0 0 0 0 0 0 0 0 0 0 0 0 0 127 0" result="hardAlpha"/>
<feOffset dy="3.57731"/>
<feGaussianBlur stdDeviation="2.68298"/>
<feComposite in2="hardAlpha" operator="arithmetic" k2="-1" k3="1"/>
<feColorMatrix type="matrix" values="0 0 0 0 0.078 0 0 0 0 0.722 0 0 0 0 0.651 0 0 0 0.6 0"/>
<feBlend mode="normal" in2="effect1_innerShadow_4725_68011" result="effect2_innerShadow_4725_68011"/>
<feColorMatrix in="SourceAlpha" type="matrix" values="0 0 0 0 0 0 0 0 0 0 0 0 0 0 0 0 0 0 127 0" result="hardAlpha"/>
<feOffset dy="-3.57731"/>
<feGaussianBlur stdDeviation="1.78866"/>
<feComposite in2="hardAlpha" operator="arithmetic" k2="-1" k3="1"/>
<feColorMatrix type="matrix" values="0 0 0 0 0.545 0 0 0 0 0.361 0 0 0 0 0.965 0 0 0 0.5 0"/>
<feBlend mode="normal" in2="effect2_innerShadow_4725_68011" result="effect3_innerShadow_4725_68011"/>
</filter>
<filter id="filter1_ddii_4725_68011" x="1.54998" y="10.9893" width="66.0817" height="52.755" filterUnits="userSpaceOnUse" color-interpolation-filters="sRGB">
<feFlood flood-opacity="0" result="BackgroundImageFix"/>
<feColorMatrix in="SourceAlpha" type="matrix" values="0 0 0 0 0 0 0 0 0 0 0 0 0 0 0 0 0 0 127 0" result="hardAlpha"/>
<feOffset dy="1.6891"/>
<feGaussianBlur stdDeviation="5.0673"/>
<feComposite in2="hardAlpha" operator="out"/>
<feColorMatrix type="matrix" values="0 0 0 0 0.078 0 0 0 0 0.451 0 0 0 0 0.651 0 0 0 1 0"/>
<feBlend mode="normal" in2="BackgroundImageFix" result="effect1_dropShadow_4725_68011"/>
<feColorMatrix in="SourceAlpha" type="matrix" values="0 0 0 0 0 0 0 0 0 0 0 0 0 0 0 0 0 0 127 0" result="hardAlpha"/>
<feOffset dy="1.6891"/>
<feGaussianBlur stdDeviation="4.22275"/>
<feComposite in2="hardAlpha" operator="out"/>
<feColorMatrix type="matrix" values="0 0 0 0 0 0 0 0 0 0 0 0 0 0 0 0 0 0 0.5 0"/>
<feBlend mode="normal" in2="effect1_dropShadow_4725_68011" result="effect2_dropShadow_4725_68011"/>
<feBlend mode="normal" in="SourceGraphic" in2="effect2_dropShadow_4725_68011" result="shape"/>
<feColorMatrix in="SourceAlpha" type="matrix" values="0 0 0 0 0 0 0 0 0 0 0 0 0 0 0 0 0 0 127 0" result="hardAlpha"/>
<feOffset dy="-1.6891"/>
<feGaussianBlur stdDeviation="0.844549"/>
<feComposite in2="hardAlpha" operator="arithmetic" k2="-1" k3="1"/>
<feColorMatrix type="matrix" values="0 0 0 0 0 0 0 0 0 0 0 0 0 0 0 0 0 0 0.1 0"/>
<feBlend mode="normal" in2="shape" result="effect3_innerShadow_4725_68011"/>
<feColorMatrix in="SourceAlpha" type="matrix" values="0 0 0 0 0 0 0 0 0 0 0 0 0 0 0 0 0 0 127 0" result="hardAlpha"/>
<feOffset dy="1.6891"/>
<feGaussianBlur stdDeviation="0.844549"/>
<feComposite in2="hardAlpha" operator="arithmetic" k2="-1" k3="1"/>
<feColorMatrix type="matrix" values="0 0 0 0 1 0 0 0 0 1 0 0 0 0 1 0 0 0 0.05 0"/>
<feBlend mode="normal" in2="effect3_innerShadow_4725_68011" result="effect4_innerShadow_4725_68011"/>
</filter>
<filter id="filter2_f_4725_68011" x="-23.4553" y="17.2348" width="113.649" height="78.6161" filterUnits="userSpaceOnUse" color-interpolation-filters="sRGB">
<feFlood flood-opacity="0" result="BackgroundImageFix"/>
<feBlend mode="normal" in="SourceGraphic" in2="BackgroundImageFix" result="shape"/>
<feGaussianBlur stdDeviation="11.6263" result="effect1_foregroundBlur_4725_68011"/>
</filter>
<filter id="filter3_f_4725_68011" x="-20.6843" y="-25.2955" width="113.473" height="64.6555" filterUnits="userSpaceOnUse" color-interpolation-filters="sRGB">
<feFlood flood-opacity="0" result="BackgroundImageFix"/>
<feBlend mode="normal" in="SourceGraphic" in2="BackgroundImageFix" result="shape"/>
<feGaussianBlur stdDeviation="11.6263" result="effect1_foregroundBlur_4725_68011"/>
</filter>
<linearGradient id="paint0_linear_4725_68011" x1="53.7772" y1="8.36942" x2="38.7315" y2="35.4937" gradientUnits="userSpaceOnUse">
<stop stop-color="#363636"/>
<stop offset="1" stop-color="#141414"/>
</linearGradient>
<linearGradient id="paint1_linear_4725_68011" x1="37.3458" y1="1.58514" x2="32.6401" y2="68.8795" gradientUnits="userSpaceOnUse">
<stop stop-color="#14B8A6"/>
<stop offset="0.33" stop-color="#3B82F6"/>
<stop offset="0.66" stop-color="#6366F1"/>
<stop offset="1" stop-color="#8B5CF6"/>
</linearGradient>
<linearGradient id="paint3_linear_4725_68011" x1="37.3458" y1="1.58514" x2="32.6401" y2="68.8795" gradientUnits="userSpaceOnUse">
<stop stop-color="#14B8A6"/>
<stop offset="0.33" stop-color="#3B82F6"/>
<stop offset="0.66" stop-color="#6366F1"/>
<stop offset="1" stop-color="#8B5CF6"/>
</linearGradient>
</defs>
</svg>
