<svg width="280" height="233" viewBox="0 0 280 233" fill="none" xmlns="http://www.w3.org/2000/svg">
  <!-- Stylized P for Perhaps - using rounded bars -->

  <!-- Vertical stem of P (4 stacked bars) -->
  <path d="M50.6168 43.4224H21.7109C9.72041 43.4224 0 33.702 0 21.7115C0 9.72063 9.72041 0 21.7109 0H50.6168C62.6077 0 72.3281 9.72063 72.3281 21.7115C72.3281 33.702 62.6077 43.4224 50.6168 43.4224Z" fill="#19181D"/>
  <path d="M50.6168 105.917H21.7109C9.72041 105.917 0 96.1961 0 84.2056C0 72.2148 9.72041 62.494 21.7109 62.494H50.6168C62.6077 62.494 72.3281 72.2148 72.3281 84.2056C72.3281 96.1961 62.6077 105.917 50.6168 105.917Z" fill="#19181D"/>
  <path d="M50.6168 170.293H21.7109C9.72041 170.293 0 160.573 0 148.583C0 136.592 9.72041 126.871 21.7109 126.871H50.6168C62.6077 126.871 72.3281 136.592 72.3281 148.583C72.3281 160.573 62.6077 170.293 50.6168 170.293Z" fill="#19181D"/>
  <path d="M50.6168 232.781H21.7109C9.72041 232.781 0 223.06 0 211.069C0 199.079 9.72041 189.358 21.7109 189.358H50.6168C62.6077 189.358 72.3281 199.079 72.3281 211.069C72.3281 223.06 62.6077 232.781 50.6168 232.781Z" fill="#19181D"/>

  <!-- Bowl of P - top row -->
  <path d="M180 43.4224H90C78.0092 43.4224 68.2888 33.702 68.2888 21.7115C68.2888 9.72063 78.0092 0 90 0H180C191.991 0 201.711 9.72063 201.711 21.7115C201.711 33.702 191.991 43.4224 180 43.4224Z" fill="#19181D"/>

  <!-- Bowl of P - right side (curved part) -->
  <path d="M258.289 84.2056C258.289 96.1961 248.569 105.917 236.578 105.917H215C203.009 105.917 193.289 96.1961 193.289 84.2056C193.289 72.2148 203.009 62.494 215 62.494H236.578C248.569 62.494 258.289 72.2148 258.289 84.2056Z" fill="#19181D"/>

  <!-- Bowl of P - bottom row (shorter) -->
  <path d="M155 170.293H90C78.0092 170.293 68.2888 160.573 68.2888 148.583C68.2888 136.592 78.0092 126.871 90 126.871H155C166.991 126.871 176.711 136.592 176.711 148.583C176.711 160.573 166.991 170.293 155 170.293Z" fill="#19181D"/>
</svg>
