<svg xmlns="http://www.w3.org/2000/svg" width="36" height="36" viewBox="0 0 36 36" fill="none">
  <!-- Stylized P for Perhaps - colored version -->

  <!-- Vertical stem of P (4 stacked bars) - gradient from teal to purple -->
  <path d="M8.4 11.58H4.1C3.08 11.58 2.25 10.75 2.25 9.73C2.25 8.71 3.08 7.88 4.1 7.88H8.4C9.42 7.88 10.25 8.71 10.25 9.73C10.25 10.75 9.42 11.58 8.4 11.58Z" fill="#14B8A6"/>
  <path d="M8.4 16.91H4.1C3.08 16.91 2.25 16.08 2.25 15.06C2.25 14.04 3.08 13.21 4.1 13.21H8.4C9.42 13.21 10.25 14.04 10.25 15.06C10.25 16.08 9.42 16.91 8.4 16.91Z" fill="#3B82F6"/>
  <path d="M8.4 22.4H4.1C3.08 22.4 2.25 21.57 2.25 20.55C2.25 19.53 3.08 18.7 4.1 18.7H8.4C9.42 18.7 10.25 19.53 10.25 20.55C10.25 21.57 9.42 22.4 8.4 22.4Z" fill="#6366F1"/>
  <path d="M8.4 27.73H4.1C3.08 27.73 2.25 26.9 2.25 25.88C2.25 24.86 3.08 24.03 4.1 24.03H8.4C9.42 24.03 10.25 24.86 10.25 25.88C10.25 26.9 9.42 27.73 8.4 27.73Z" fill="#8B5CF6"/>

  <!-- Bowl of P - top row -->
  <path d="M22 11.58H12C10.98 11.58 10.15 10.75 10.15 9.73C10.15 8.71 10.98 7.88 12 7.88H22C23.02 7.88 23.85 8.71 23.85 9.73C23.85 10.75 23.02 11.58 22 11.58Z" fill="#14B8A6"/>

  <!-- Bowl of P - right side -->
  <path d="M30.75 15.06C30.75 16.08 29.92 16.91 28.9 16.91H26C24.98 16.91 24.15 16.08 24.15 15.06C24.15 14.04 24.98 13.21 26 13.21H28.9C29.92 13.21 30.75 14.04 30.75 15.06Z" fill="#3B82F6"/>

  <!-- Bowl of P - bottom row (shorter) -->
  <path d="M19 22.4H12C10.98 22.4 10.15 21.57 10.15 20.55C10.15 19.53 10.98 18.7 12 18.7H19C20.02 18.7 20.85 19.53 20.85 20.55C20.85 21.57 20.02 22.4 19 22.4Z" fill="#6366F1"/>
</svg>
